%TF.GenerationSoftware,KiCad,Pcbnew,9.0.0*%
%TF.CreationDate,2025-04-30T15:49:22-03:00*%
%TF.ProjectId,Mini D1 Puck,4d696e69-2044-4312-9050-75636b2e6b69,rev?*%
%TF.SameCoordinates,Original*%
%TF.FileFunction,Copper,L1,Top*%
%TF.FilePolarity,Positive*%
%FSLAX46Y46*%
G04 Gerber Fmt 4.6, Leading zero omitted, Abs format (unit mm)*
G04 Created by KiCad (PCBNEW 9.0.0) date 2025-04-30 15:49:22*
%MOMM*%
%LPD*%
G01*
G04 APERTURE LIST*
G04 Aperture macros list*
%AMRoundRect*
0 Rectangle with rounded corners*
0 $1 Rounding radius*
0 $2 $3 $4 $5 $6 $7 $8 $9 X,Y pos of 4 corners*
0 Add a 4 corners polygon primitive as box body*
4,1,4,$2,$3,$4,$5,$6,$7,$8,$9,$2,$3,0*
0 Add four circle primitives for the rounded corners*
1,1,$1+$1,$2,$3*
1,1,$1+$1,$4,$5*
1,1,$1+$1,$6,$7*
1,1,$1+$1,$8,$9*
0 Add four rect primitives between the rounded corners*
20,1,$1+$1,$2,$3,$4,$5,0*
20,1,$1+$1,$4,$5,$6,$7,0*
20,1,$1+$1,$6,$7,$8,$9,0*
20,1,$1+$1,$8,$9,$2,$3,0*%
G04 Aperture macros list end*
%TA.AperFunction,ComponentPad*%
%ADD10C,1.800000*%
%TD*%
%TA.AperFunction,ComponentPad*%
%ADD11C,1.400000*%
%TD*%
%TA.AperFunction,ComponentPad*%
%ADD12O,1.400000X1.400000*%
%TD*%
%TA.AperFunction,ComponentPad*%
%ADD13R,1.300000X1.300000*%
%TD*%
%TA.AperFunction,ComponentPad*%
%ADD14C,1.300000*%
%TD*%
%TA.AperFunction,ComponentPad*%
%ADD15O,1.700000X2.000000*%
%TD*%
%TA.AperFunction,ComponentPad*%
%ADD16RoundRect,0.250000X-0.600000X-0.750000X0.600000X-0.750000X0.600000X0.750000X-0.600000X0.750000X0*%
%TD*%
%TA.AperFunction,ComponentPad*%
%ADD17C,1.600000*%
%TD*%
%TA.AperFunction,ComponentPad*%
%ADD18R,1.600000X1.600000*%
%TD*%
%TA.AperFunction,ComponentPad*%
%ADD19O,2.200000X3.500000*%
%TD*%
%TA.AperFunction,ComponentPad*%
%ADD20R,1.500000X2.500000*%
%TD*%
%TA.AperFunction,ComponentPad*%
%ADD21O,1.500000X2.500000*%
%TD*%
%TA.AperFunction,ComponentPad*%
%ADD22R,1.700000X1.700000*%
%TD*%
%TA.AperFunction,ComponentPad*%
%ADD23O,1.700000X1.700000*%
%TD*%
%TA.AperFunction,ComponentPad*%
%ADD24R,1.800000X1.800000*%
%TD*%
%TA.AperFunction,Conductor*%
%ADD25C,0.200000*%
%TD*%
G04 APERTURE END LIST*
D10*
%TO.P,U1,16*%
%TO.N,N/C*%
X200000000Y-77780000D03*
%TO.P,U1,15*%
X200000000Y-75240000D03*
%TO.P,U1,14*%
X200000000Y-72700000D03*
%TO.P,U1,13*%
X200000000Y-70160000D03*
%TO.P,U1,12*%
X200000000Y-67620000D03*
%TO.P,U1,11*%
X200000000Y-65080000D03*
%TO.P,U1,10*%
X200000000Y-62540000D03*
%TO.P,U1,9*%
X200000000Y-60000000D03*
%TO.P,U1,8*%
X177140000Y-60000000D03*
%TO.P,U1,7*%
X177140000Y-62540000D03*
%TO.P,U1,6*%
X177140000Y-65080000D03*
%TO.P,U1,5*%
X177140000Y-67620000D03*
%TO.P,U1,4*%
X177140000Y-70160000D03*
%TO.P,U1,3*%
X177140000Y-72700000D03*
%TO.P,U1,2*%
X177140000Y-75240000D03*
%TO.P,U1,1*%
X177140000Y-77780000D03*
%TD*%
D11*
%TO.P,R5,1*%
%TO.N,N/C*%
X174000000Y-67500000D03*
D12*
%TO.P,R5,2*%
X174000000Y-72580000D03*
%TD*%
D11*
%TO.P,R4,1*%
%TO.N,N/C*%
X171500000Y-64500000D03*
D12*
%TO.P,R4,2*%
X171500000Y-59420000D03*
%TD*%
D11*
%TO.P,R3,1*%
%TO.N,N/C*%
X174000000Y-64540000D03*
D12*
%TO.P,R3,2*%
X174000000Y-59460000D03*
%TD*%
D13*
%TO.P,Q2,1*%
%TO.N,N/C*%
X176500000Y-56500000D03*
D14*
%TO.P,Q2,2*%
X175230000Y-55230000D03*
%TO.P,Q2,3*%
X176500000Y-53960000D03*
%TD*%
D15*
%TO.P,BATT,2*%
%TO.N,N/C*%
X184250000Y-59532500D03*
D16*
%TO.P,BATT,1*%
X181750000Y-59532500D03*
%TD*%
D17*
%TO.P,C1,2*%
%TO.N,N/C*%
X196347349Y-76500000D03*
D18*
%TO.P,C1,1*%
X192847349Y-76500000D03*
%TD*%
D19*
%TO.P,SW1,*%
%TO.N,*%
X174900000Y-82000000D03*
X183100000Y-82000000D03*
D20*
%TO.P,SW1,1*%
%TO.N,N/C*%
X177000000Y-82000000D03*
D21*
%TO.P,SW1,2*%
X179000000Y-82000000D03*
%TO.P,SW1,3*%
X181000000Y-82000000D03*
%TD*%
D22*
%TO.P,J1,1*%
%TO.N,N/C*%
X180500000Y-65500000D03*
D23*
%TO.P,J1,2*%
X183040000Y-65500000D03*
%TO.P,J1,3*%
X185580000Y-65500000D03*
%TD*%
D13*
%TO.P,Q1,1*%
%TO.N,N/C*%
X194500000Y-67500000D03*
D14*
%TO.P,Q1,2*%
X193230000Y-66230000D03*
%TO.P,Q1,3*%
X194500000Y-64960000D03*
%TD*%
D24*
%TO.P,D1,1*%
%TO.N,N/C*%
X186730000Y-79500000D03*
D10*
%TO.P,D1,2*%
X189270000Y-79500000D03*
%TD*%
D11*
%TO.P,R2,1*%
%TO.N,N/C*%
X189000000Y-70960000D03*
D12*
%TO.P,R2,2*%
X189000000Y-76040000D03*
%TD*%
D16*
%TO.P,MOTOR,1*%
%TO.N,N/C*%
X190750000Y-59532500D03*
D15*
%TO.P,MOTOR,2*%
X193250000Y-59532500D03*
%TD*%
D11*
%TO.P,R1,1*%
%TO.N,N/C*%
X197040000Y-71000000D03*
D12*
%TO.P,R1,2*%
X191960000Y-71000000D03*
%TD*%
D25*
%TO.N,*%
X180500000Y-65500000D02*
X180500000Y-67000000D01*
X181000000Y-67500000D02*
X182500000Y-67500000D01*
X182500000Y-67500000D02*
X183500000Y-68500000D01*
X180500000Y-67000000D02*
X181000000Y-67500000D01*
X181100000Y-77100000D02*
X181100000Y-81900000D01*
X183500000Y-68500000D02*
X186000000Y-68500000D01*
X186000000Y-68500000D02*
X186000000Y-77000000D01*
X186000000Y-77000000D02*
X181000000Y-77000000D01*
X181000000Y-77000000D02*
X181100000Y-77100000D01*
X181100000Y-81900000D02*
X181000000Y-82000000D01*
X175460000Y-64540000D02*
X175500000Y-64500000D01*
X174000000Y-64540000D02*
X175460000Y-64540000D01*
X175500000Y-64500000D02*
X175500000Y-73600000D01*
X175500000Y-73600000D02*
X177140000Y-75240000D01*
X174000000Y-59460000D02*
X174960000Y-58500000D01*
X174960000Y-58500000D02*
X179000000Y-58500000D01*
X179000000Y-58500000D02*
X180032500Y-59532500D01*
X180032500Y-59532500D02*
X181750000Y-59532500D01*
X171500000Y-64500000D02*
X172000000Y-64500000D01*
X172000000Y-64500000D02*
X172040000Y-64540000D01*
X172040000Y-64540000D02*
X174000000Y-64540000D01*
X181677500Y-59460000D02*
X181750000Y-59532500D01*
X171500000Y-59420000D02*
X171500000Y-58000000D01*
X171500000Y-58000000D02*
X173500000Y-56000000D01*
X173500000Y-56000000D02*
X173500000Y-53960000D01*
X173500000Y-53960000D02*
X176500000Y-53960000D01*
X176500000Y-56500000D02*
X182500000Y-56500000D01*
X182500000Y-56500000D02*
X184250000Y-58250000D01*
X184250000Y-58250000D02*
X184250000Y-59532500D01*
X176640000Y-60000000D02*
X179000000Y-60000000D01*
X179000000Y-60000000D02*
X179000000Y-60500000D01*
X179000000Y-60500000D02*
X183040000Y-64540000D01*
X183040000Y-64540000D02*
X183040000Y-65500000D01*
X193230000Y-66230000D02*
X191960000Y-67500000D01*
X191960000Y-67500000D02*
X191960000Y-71000000D01*
X189000000Y-76040000D02*
X186730000Y-78310000D01*
X186730000Y-78310000D02*
X186730000Y-79500000D01*
X196347349Y-78152651D02*
X195000000Y-79500000D01*
X196347349Y-76500000D02*
X196347349Y-78152651D01*
X195000000Y-79500000D02*
X189270000Y-79500000D01*
X190500000Y-72500000D02*
X190500000Y-68000000D01*
X189000000Y-68000000D02*
X190500000Y-68000000D01*
X183500000Y-68000000D02*
X189000000Y-68000000D01*
X183040000Y-65500000D02*
X183040000Y-67540000D01*
X183040000Y-67540000D02*
X183500000Y-68000000D01*
X189000000Y-68000000D02*
X189000000Y-70960000D01*
X184250000Y-59532500D02*
X184250000Y-60750000D01*
X184250000Y-60750000D02*
X185580000Y-62080000D01*
X185580000Y-62080000D02*
X185580000Y-65500000D01*
X190500000Y-72500000D02*
X192847349Y-74847349D01*
X192847349Y-74847349D02*
X192847349Y-76500000D01*
X194500000Y-67500000D02*
X194500000Y-74652651D01*
X194500000Y-74652651D02*
X196347349Y-76500000D01*
X190500000Y-64000000D02*
X190750000Y-63750000D01*
X190500000Y-68000000D02*
X190500000Y-64000000D01*
X190750000Y-63750000D02*
X190750000Y-59532500D01*
X193250000Y-59532500D02*
X193250000Y-63710000D01*
X193250000Y-63710000D02*
X194500000Y-64960000D01*
%TD*%
M02*
