%TF.GenerationSoftware,KiCad,Pcbnew,9.0.0*%
%TF.CreationDate,2025-04-30T15:49:22-03:00*%
%TF.ProjectId,Mini D1 Puck,4d696e69-2044-4312-9050-75636b2e6b69,rev?*%
%TF.SameCoordinates,Original*%
%TF.FileFunction,Legend,Top*%
%TF.FilePolarity,Positive*%
%FSLAX46Y46*%
G04 Gerber Fmt 4.6, Leading zero omitted, Abs format (unit mm)*
G04 Created by KiCad (PCBNEW 9.0.0) date 2025-04-30 15:49:22*
%MOMM*%
%LPD*%
G01*
G04 APERTURE LIST*
%ADD10C,0.300000*%
%ADD11C,0.200000*%
%ADD12C,0.150000*%
%ADD13C,0.100000*%
%ADD14C,0.120000*%
%ADD15C,1.800000*%
G04 APERTURE END LIST*
D10*
X170699171Y-71554510D02*
X172199171Y-71554510D01*
X172199171Y-71554510D02*
X170699171Y-72411653D01*
X170699171Y-72411653D02*
X172199171Y-72411653D01*
X170699171Y-73125939D02*
X172199171Y-73125939D01*
X171484885Y-73125939D02*
X171484885Y-73983082D01*
X170699171Y-73983082D02*
X172199171Y-73983082D01*
X170699171Y-74697368D02*
X172199171Y-74697368D01*
X172199171Y-74697368D02*
X172199171Y-75054511D01*
X172199171Y-75054511D02*
X172127742Y-75268797D01*
X172127742Y-75268797D02*
X171984885Y-75411654D01*
X171984885Y-75411654D02*
X171842028Y-75483083D01*
X171842028Y-75483083D02*
X171556314Y-75554511D01*
X171556314Y-75554511D02*
X171342028Y-75554511D01*
X171342028Y-75554511D02*
X171056314Y-75483083D01*
X171056314Y-75483083D02*
X170913457Y-75411654D01*
X170913457Y-75411654D02*
X170770600Y-75268797D01*
X170770600Y-75268797D02*
X170699171Y-75054511D01*
X170699171Y-75054511D02*
X170699171Y-74697368D01*
X171270600Y-76197368D02*
X171270600Y-77340226D01*
X170699171Y-78054511D02*
X172199171Y-78054511D01*
X171484885Y-78054511D02*
X171484885Y-78911654D01*
X170699171Y-78911654D02*
X172199171Y-78911654D01*
X170699171Y-79625940D02*
X172199171Y-79625940D01*
X172199171Y-79625940D02*
X172199171Y-80197369D01*
X172199171Y-80197369D02*
X172127742Y-80340226D01*
X172127742Y-80340226D02*
X172056314Y-80411655D01*
X172056314Y-80411655D02*
X171913457Y-80483083D01*
X171913457Y-80483083D02*
X171699171Y-80483083D01*
X171699171Y-80483083D02*
X171556314Y-80411655D01*
X171556314Y-80411655D02*
X171484885Y-80340226D01*
X171484885Y-80340226D02*
X171413457Y-80197369D01*
X171413457Y-80197369D02*
X171413457Y-79625940D01*
X170699171Y-82268797D02*
X172199171Y-82268797D01*
X172199171Y-82268797D02*
X172199171Y-82840226D01*
X172199171Y-82840226D02*
X172127742Y-82983083D01*
X172127742Y-82983083D02*
X172056314Y-83054512D01*
X172056314Y-83054512D02*
X171913457Y-83125940D01*
X171913457Y-83125940D02*
X171699171Y-83125940D01*
X171699171Y-83125940D02*
X171556314Y-83054512D01*
X171556314Y-83054512D02*
X171484885Y-82983083D01*
X171484885Y-82983083D02*
X171413457Y-82840226D01*
X171413457Y-82840226D02*
X171413457Y-82268797D01*
X170699171Y-84554512D02*
X170699171Y-83697369D01*
X170699171Y-84125940D02*
X172199171Y-84125940D01*
X172199171Y-84125940D02*
X171984885Y-83983083D01*
X171984885Y-83983083D02*
X171842028Y-83840226D01*
X171842028Y-83840226D02*
X171770600Y-83697369D01*
D11*
X178500000Y-63500000D02*
X187500000Y-63500000D01*
X187500000Y-76500000D01*
X178500000Y-76500000D01*
X178500000Y-63500000D01*
D12*
X181712857Y-53300057D02*
X182427143Y-56300057D01*
X182427143Y-56300057D02*
X182998571Y-54157200D01*
X182998571Y-54157200D02*
X183570000Y-56300057D01*
X183570000Y-56300057D02*
X184284286Y-53300057D01*
X186569999Y-56157200D02*
X186284285Y-56300057D01*
X186284285Y-56300057D02*
X185712857Y-56300057D01*
X185712857Y-56300057D02*
X185427142Y-56157200D01*
X185427142Y-56157200D02*
X185284285Y-55871485D01*
X185284285Y-55871485D02*
X185284285Y-54728628D01*
X185284285Y-54728628D02*
X185427142Y-54442914D01*
X185427142Y-54442914D02*
X185712857Y-54300057D01*
X185712857Y-54300057D02*
X186284285Y-54300057D01*
X186284285Y-54300057D02*
X186569999Y-54442914D01*
X186569999Y-54442914D02*
X186712857Y-54728628D01*
X186712857Y-54728628D02*
X186712857Y-55014342D01*
X186712857Y-55014342D02*
X185284285Y-55300057D01*
X187998571Y-56300057D02*
X187998571Y-53300057D01*
X187998571Y-53300057D02*
X188998571Y-55442914D01*
X188998571Y-55442914D02*
X189998571Y-53300057D01*
X189998571Y-53300057D02*
X189998571Y-56300057D01*
X191855714Y-56300057D02*
X191569999Y-56157200D01*
X191569999Y-56157200D02*
X191427142Y-56014342D01*
X191427142Y-56014342D02*
X191284285Y-55728628D01*
X191284285Y-55728628D02*
X191284285Y-54871485D01*
X191284285Y-54871485D02*
X191427142Y-54585771D01*
X191427142Y-54585771D02*
X191569999Y-54442914D01*
X191569999Y-54442914D02*
X191855714Y-54300057D01*
X191855714Y-54300057D02*
X192284285Y-54300057D01*
X192284285Y-54300057D02*
X192569999Y-54442914D01*
X192569999Y-54442914D02*
X192712857Y-54585771D01*
X192712857Y-54585771D02*
X192855714Y-54871485D01*
X192855714Y-54871485D02*
X192855714Y-55728628D01*
X192855714Y-55728628D02*
X192712857Y-56014342D01*
X192712857Y-56014342D02*
X192569999Y-56157200D01*
X192569999Y-56157200D02*
X192284285Y-56300057D01*
X192284285Y-56300057D02*
X191855714Y-56300057D01*
X193998571Y-56157200D02*
X194284285Y-56300057D01*
X194284285Y-56300057D02*
X194855714Y-56300057D01*
X194855714Y-56300057D02*
X195141428Y-56157200D01*
X195141428Y-56157200D02*
X195284285Y-55871485D01*
X195284285Y-55871485D02*
X195284285Y-55728628D01*
X195284285Y-55728628D02*
X195141428Y-55442914D01*
X195141428Y-55442914D02*
X194855714Y-55300057D01*
X194855714Y-55300057D02*
X194427143Y-55300057D01*
X194427143Y-55300057D02*
X194141428Y-55157200D01*
X194141428Y-55157200D02*
X193998571Y-54871485D01*
X193998571Y-54871485D02*
X193998571Y-54728628D01*
X193998571Y-54728628D02*
X194141428Y-54442914D01*
X194141428Y-54442914D02*
X194427143Y-54300057D01*
X194427143Y-54300057D02*
X194855714Y-54300057D01*
X194855714Y-54300057D02*
X195141428Y-54442914D01*
X181880952Y-51563509D02*
X182023809Y-51611128D01*
X182023809Y-51611128D02*
X182071428Y-51658747D01*
X182071428Y-51658747D02*
X182119047Y-51753985D01*
X182119047Y-51753985D02*
X182119047Y-51896842D01*
X182119047Y-51896842D02*
X182071428Y-51992080D01*
X182071428Y-51992080D02*
X182023809Y-52039700D01*
X182023809Y-52039700D02*
X181928571Y-52087319D01*
X181928571Y-52087319D02*
X181547619Y-52087319D01*
X181547619Y-52087319D02*
X181547619Y-51087319D01*
X181547619Y-51087319D02*
X181880952Y-51087319D01*
X181880952Y-51087319D02*
X181976190Y-51134938D01*
X181976190Y-51134938D02*
X182023809Y-51182557D01*
X182023809Y-51182557D02*
X182071428Y-51277795D01*
X182071428Y-51277795D02*
X182071428Y-51373033D01*
X182071428Y-51373033D02*
X182023809Y-51468271D01*
X182023809Y-51468271D02*
X181976190Y-51515890D01*
X181976190Y-51515890D02*
X181880952Y-51563509D01*
X181880952Y-51563509D02*
X181547619Y-51563509D01*
X182500000Y-51801604D02*
X182976190Y-51801604D01*
X182404762Y-52087319D02*
X182738095Y-51087319D01*
X182738095Y-51087319D02*
X183071428Y-52087319D01*
X183261905Y-51087319D02*
X183833333Y-51087319D01*
X183547619Y-52087319D02*
X183547619Y-51087319D01*
X184023810Y-51087319D02*
X184595238Y-51087319D01*
X184309524Y-52087319D02*
X184309524Y-51087319D01*
X189738095Y-52087319D02*
X189738095Y-51087319D01*
X189738095Y-51087319D02*
X190071428Y-51801604D01*
X190071428Y-51801604D02*
X190404761Y-51087319D01*
X190404761Y-51087319D02*
X190404761Y-52087319D01*
X191071428Y-51087319D02*
X191261904Y-51087319D01*
X191261904Y-51087319D02*
X191357142Y-51134938D01*
X191357142Y-51134938D02*
X191452380Y-51230176D01*
X191452380Y-51230176D02*
X191499999Y-51420652D01*
X191499999Y-51420652D02*
X191499999Y-51753985D01*
X191499999Y-51753985D02*
X191452380Y-51944461D01*
X191452380Y-51944461D02*
X191357142Y-52039700D01*
X191357142Y-52039700D02*
X191261904Y-52087319D01*
X191261904Y-52087319D02*
X191071428Y-52087319D01*
X191071428Y-52087319D02*
X190976190Y-52039700D01*
X190976190Y-52039700D02*
X190880952Y-51944461D01*
X190880952Y-51944461D02*
X190833333Y-51753985D01*
X190833333Y-51753985D02*
X190833333Y-51420652D01*
X190833333Y-51420652D02*
X190880952Y-51230176D01*
X190880952Y-51230176D02*
X190976190Y-51134938D01*
X190976190Y-51134938D02*
X191071428Y-51087319D01*
X191785714Y-51087319D02*
X192357142Y-51087319D01*
X192071428Y-52087319D02*
X192071428Y-51087319D01*
X192880952Y-51087319D02*
X193071428Y-51087319D01*
X193071428Y-51087319D02*
X193166666Y-51134938D01*
X193166666Y-51134938D02*
X193261904Y-51230176D01*
X193261904Y-51230176D02*
X193309523Y-51420652D01*
X193309523Y-51420652D02*
X193309523Y-51753985D01*
X193309523Y-51753985D02*
X193261904Y-51944461D01*
X193261904Y-51944461D02*
X193166666Y-52039700D01*
X193166666Y-52039700D02*
X193071428Y-52087319D01*
X193071428Y-52087319D02*
X192880952Y-52087319D01*
X192880952Y-52087319D02*
X192785714Y-52039700D01*
X192785714Y-52039700D02*
X192690476Y-51944461D01*
X192690476Y-51944461D02*
X192642857Y-51753985D01*
X192642857Y-51753985D02*
X192642857Y-51420652D01*
X192642857Y-51420652D02*
X192690476Y-51230176D01*
X192690476Y-51230176D02*
X192785714Y-51134938D01*
X192785714Y-51134938D02*
X192880952Y-51087319D01*
X194309523Y-52087319D02*
X193976190Y-51611128D01*
X193738095Y-52087319D02*
X193738095Y-51087319D01*
X193738095Y-51087319D02*
X194119047Y-51087319D01*
X194119047Y-51087319D02*
X194214285Y-51134938D01*
X194214285Y-51134938D02*
X194261904Y-51182557D01*
X194261904Y-51182557D02*
X194309523Y-51277795D01*
X194309523Y-51277795D02*
X194309523Y-51420652D01*
X194309523Y-51420652D02*
X194261904Y-51515890D01*
X194261904Y-51515890D02*
X194214285Y-51563509D01*
X194214285Y-51563509D02*
X194119047Y-51611128D01*
X194119047Y-51611128D02*
X193738095Y-51611128D01*
D13*
%TO.C,U1*%
X201346026Y-78623285D02*
X199402480Y-79584181D01*
X201321078Y-56068193D02*
X201346026Y-78623285D01*
X201205482Y-55175425D02*
X201321078Y-56068193D01*
X200977122Y-54420387D02*
X201205482Y-55175425D01*
X200649595Y-53788540D02*
X200977122Y-54420387D01*
X200236503Y-53265342D02*
X200649595Y-53788540D01*
X200001517Y-83636932D02*
X199384156Y-83636932D01*
X200001517Y-81643738D02*
X200001517Y-83636932D01*
X199751445Y-52836257D02*
X200236503Y-53265342D01*
X199402480Y-79584181D02*
X199372686Y-86392524D01*
X199387472Y-86437228D02*
X193576180Y-86437228D01*
X199366517Y-85647765D02*
X199313600Y-79562349D01*
X199348878Y-81643738D02*
X200001517Y-81643738D01*
X199313600Y-79562349D02*
X197761378Y-79562349D01*
X199208018Y-52486742D02*
X199751445Y-52836257D01*
X198619824Y-52202259D02*
X199208018Y-52486742D01*
X198000460Y-51968266D02*
X198619824Y-52202259D01*
X197796656Y-85647765D02*
X199366517Y-85647765D01*
X197761378Y-79562349D02*
X197232211Y-80091515D01*
X197267489Y-85153876D02*
X197796656Y-85647765D01*
X197232211Y-80091515D02*
X195979850Y-80091515D01*
X195979850Y-85153876D02*
X197267489Y-85153876D01*
X195979850Y-80091515D02*
X195979850Y-85153876D01*
X193576180Y-86437228D02*
X193549849Y-85153795D01*
X193549849Y-85153795D02*
X184718627Y-85160483D01*
X192529931Y-86025188D02*
X185390350Y-86025188D01*
X192529931Y-80211451D02*
X192529931Y-86025188D01*
X185390350Y-86025188D02*
X185390350Y-80211451D01*
X185390350Y-80211451D02*
X192529931Y-80211451D01*
X184720603Y-86362736D02*
X175639807Y-86336658D01*
X184718627Y-85160483D02*
X184720603Y-86362736D01*
X178962547Y-51997024D02*
X198000460Y-51968266D01*
X178364750Y-52182690D02*
X178962547Y-51997024D01*
X177820560Y-52429623D02*
X178364750Y-52182690D01*
X177329488Y-52737259D02*
X177820560Y-52429623D01*
X176891047Y-53105048D02*
X177329488Y-52737259D01*
X176504747Y-53532423D02*
X176891047Y-53105048D01*
X176170099Y-54018833D02*
X176504747Y-53532423D01*
X175886616Y-54563714D02*
X176170099Y-54018833D01*
X175653805Y-55166507D02*
X175886616Y-54563714D01*
X175639807Y-86336658D02*
X175653805Y-55166507D01*
D14*
%TO.C,R5*%
X174920000Y-68120000D02*
X174920000Y-71960000D01*
X173080000Y-68120000D02*
X173080000Y-71960000D01*
%TO.C,R4*%
X170580000Y-63880000D02*
X170580000Y-60040000D01*
X172420000Y-63880000D02*
X172420000Y-60040000D01*
%TO.C,R3*%
X173080000Y-63920000D02*
X173080000Y-60080000D01*
X174920000Y-63920000D02*
X174920000Y-60080000D01*
%TO.C,Q2*%
X178350000Y-57030000D02*
X178350000Y-53430000D01*
X178338478Y-57068478D02*
G75*
G02*
X173899999Y-55230000I-1838478J1838478D01*
G01*
X173900000Y-55230000D02*
G75*
G02*
X178338478Y-53391522I2600000J0D01*
G01*
%TO.C,BATT*%
X186860000Y-61142500D02*
X185640000Y-61142500D01*
X186860000Y-53942500D02*
X185640000Y-53942500D01*
X186860000Y-52722500D02*
X186860000Y-61142500D01*
X185640000Y-61142500D02*
X185640000Y-58942500D01*
X185640000Y-58942500D02*
X186860000Y-58942500D01*
X185640000Y-53942500D02*
X185640000Y-58942500D01*
X184570000Y-57942500D02*
X184250000Y-57942500D01*
X184570000Y-54522500D02*
X184570000Y-57942500D01*
X184250000Y-57942500D02*
X183930000Y-57942500D01*
X184250000Y-54442500D02*
X184570000Y-54522500D01*
X183930000Y-57942500D02*
X183930000Y-54522500D01*
X183930000Y-54522500D02*
X184250000Y-54442500D01*
X182920000Y-58942500D02*
X183080000Y-58942500D01*
X182070000Y-57942500D02*
X181750000Y-57942500D01*
X182070000Y-54522500D02*
X182070000Y-57942500D01*
X182050000Y-61632500D02*
X181750000Y-61032500D01*
X181750000Y-61032500D02*
X181450000Y-61632500D01*
X181750000Y-57942500D02*
X181430000Y-57942500D01*
X181750000Y-54442500D02*
X182070000Y-54522500D01*
X181450000Y-61632500D02*
X182050000Y-61632500D01*
X181430000Y-57942500D02*
X181430000Y-54522500D01*
X181430000Y-54522500D02*
X181750000Y-54442500D01*
X180360000Y-61142500D02*
X179140000Y-61142500D01*
X180360000Y-58942500D02*
X180360000Y-61142500D01*
X180360000Y-58942500D02*
X179140000Y-58942500D01*
X180360000Y-57942500D02*
X185640000Y-57942500D01*
X180360000Y-53942500D02*
X180360000Y-58942500D01*
X179140000Y-61142500D02*
X179140000Y-52722500D01*
X179140000Y-53942500D02*
X180360000Y-53942500D01*
X179140000Y-52722500D02*
X186860000Y-52722500D01*
%TO.C,C1*%
X198717349Y-76500000D02*
G75*
G02*
X190477349Y-76500000I-4120000J0D01*
G01*
X190477349Y-76500000D02*
G75*
G02*
X198717349Y-76500000I4120000J0D01*
G01*
X198678349Y-75967000D02*
X198678349Y-77033000D01*
X198638349Y-75732000D02*
X198638349Y-77268000D01*
X198598349Y-75552000D02*
X198598349Y-77448000D01*
X198558349Y-75402000D02*
X198558349Y-77598000D01*
X198518349Y-75271000D02*
X198518349Y-77729000D01*
X198478349Y-75154000D02*
X198478349Y-77846000D01*
X198438349Y-75047000D02*
X198438349Y-77953000D01*
X198398349Y-74948000D02*
X198398349Y-78052000D01*
X198358349Y-74855000D02*
X198358349Y-78145000D01*
X198318349Y-74769000D02*
X198318349Y-78231000D01*
X198278349Y-74687000D02*
X198278349Y-78313000D01*
X198238349Y-74610000D02*
X198238349Y-78390000D01*
X198198349Y-74536000D02*
X198198349Y-78464000D01*
X198158349Y-74466000D02*
X198158349Y-78534000D01*
X198118349Y-74398000D02*
X198118349Y-78602000D01*
X198078349Y-74334000D02*
X198078349Y-78666000D01*
X198038349Y-74272000D02*
X198038349Y-78728000D01*
X197998349Y-74213000D02*
X197998349Y-78787000D01*
X197958349Y-74155000D02*
X197958349Y-78845000D01*
X197918349Y-74100000D02*
X197918349Y-78900000D01*
X197878349Y-74046000D02*
X197878349Y-78954000D01*
X197838349Y-73995000D02*
X197838349Y-79005000D01*
X197798349Y-73944000D02*
X197798349Y-79056000D01*
X197758349Y-73896000D02*
X197758349Y-79104000D01*
X197718349Y-73849000D02*
X197718349Y-79151000D01*
X197678349Y-73803000D02*
X197678349Y-79197000D01*
X197638349Y-73759000D02*
X197638349Y-79241000D01*
X197598349Y-73716000D02*
X197598349Y-79284000D01*
X197558349Y-73674000D02*
X197558349Y-79326000D01*
X197518349Y-73633000D02*
X197518349Y-79367000D01*
X197478349Y-73593000D02*
X197478349Y-79407000D01*
X197438349Y-73555000D02*
X197438349Y-79445000D01*
X197398349Y-73517000D02*
X197398349Y-79483000D01*
X197358349Y-77540000D02*
X197358349Y-79519000D01*
X197358349Y-73481000D02*
X197358349Y-75460000D01*
X197318349Y-77540000D02*
X197318349Y-79555000D01*
X197318349Y-73445000D02*
X197318349Y-75460000D01*
X197278349Y-77540000D02*
X197278349Y-79590000D01*
X197278349Y-73410000D02*
X197278349Y-75460000D01*
X197238349Y-77540000D02*
X197238349Y-79624000D01*
X197238349Y-73376000D02*
X197238349Y-75460000D01*
X197198349Y-77540000D02*
X197198349Y-79656000D01*
X197198349Y-73344000D02*
X197198349Y-75460000D01*
X197158349Y-77540000D02*
X197158349Y-79689000D01*
X197158349Y-73311000D02*
X197158349Y-75460000D01*
X197118349Y-77540000D02*
X197118349Y-79720000D01*
X197118349Y-73280000D02*
X197118349Y-75460000D01*
X197078349Y-77540000D02*
X197078349Y-79750000D01*
X197078349Y-73250000D02*
X197078349Y-75460000D01*
X197038349Y-77540000D02*
X197038349Y-79780000D01*
X197038349Y-73220000D02*
X197038349Y-75460000D01*
X196998349Y-77540000D02*
X196998349Y-79809000D01*
X196998349Y-73191000D02*
X196998349Y-75460000D01*
X196958349Y-77540000D02*
X196958349Y-79838000D01*
X196958349Y-73162000D02*
X196958349Y-75460000D01*
X196918349Y-77540000D02*
X196918349Y-79865000D01*
X196918349Y-73135000D02*
X196918349Y-75460000D01*
X196878349Y-77540000D02*
X196878349Y-79892000D01*
X196878349Y-73108000D02*
X196878349Y-75460000D01*
X196838349Y-77540000D02*
X196838349Y-79918000D01*
X196838349Y-73082000D02*
X196838349Y-75460000D01*
X196798349Y-77540000D02*
X196798349Y-79944000D01*
X196798349Y-73056000D02*
X196798349Y-75460000D01*
X196758349Y-77540000D02*
X196758349Y-79969000D01*
X196758349Y-73031000D02*
X196758349Y-75460000D01*
X196718349Y-77540000D02*
X196718349Y-79993000D01*
X196718349Y-73007000D02*
X196718349Y-75460000D01*
X196678349Y-77540000D02*
X196678349Y-80017000D01*
X196678349Y-72983000D02*
X196678349Y-75460000D01*
X196638349Y-77540000D02*
X196638349Y-80040000D01*
X196638349Y-72960000D02*
X196638349Y-75460000D01*
X196598349Y-77540000D02*
X196598349Y-80062000D01*
X196598349Y-72938000D02*
X196598349Y-75460000D01*
X196558349Y-77540000D02*
X196558349Y-80084000D01*
X196558349Y-72916000D02*
X196558349Y-75460000D01*
X196518349Y-77540000D02*
X196518349Y-80106000D01*
X196518349Y-72894000D02*
X196518349Y-75460000D01*
X196478349Y-77540000D02*
X196478349Y-80127000D01*
X196478349Y-72873000D02*
X196478349Y-75460000D01*
X196438349Y-77540000D02*
X196438349Y-80147000D01*
X196438349Y-72853000D02*
X196438349Y-75460000D01*
X196398349Y-77540000D02*
X196398349Y-80166000D01*
X196398349Y-72834000D02*
X196398349Y-75460000D01*
X196358349Y-77540000D02*
X196358349Y-80186000D01*
X196358349Y-72814000D02*
X196358349Y-75460000D01*
X196318349Y-77540000D02*
X196318349Y-80204000D01*
X196318349Y-72796000D02*
X196318349Y-75460000D01*
X196278349Y-77540000D02*
X196278349Y-80222000D01*
X196278349Y-72778000D02*
X196278349Y-75460000D01*
X196238349Y-77540000D02*
X196238349Y-80240000D01*
X196238349Y-72760000D02*
X196238349Y-75460000D01*
X196198349Y-77540000D02*
X196198349Y-80257000D01*
X196198349Y-72743000D02*
X196198349Y-75460000D01*
X196158349Y-77540000D02*
X196158349Y-80274000D01*
X196158349Y-72726000D02*
X196158349Y-75460000D01*
X196118349Y-77540000D02*
X196118349Y-80290000D01*
X196118349Y-72710000D02*
X196118349Y-75460000D01*
X196078349Y-77540000D02*
X196078349Y-80305000D01*
X196078349Y-72695000D02*
X196078349Y-75460000D01*
X196038349Y-77540000D02*
X196038349Y-80321000D01*
X196038349Y-72679000D02*
X196038349Y-75460000D01*
X195998349Y-77540000D02*
X195998349Y-80335000D01*
X195998349Y-72665000D02*
X195998349Y-75460000D01*
X195958349Y-77540000D02*
X195958349Y-80350000D01*
X195958349Y-72650000D02*
X195958349Y-75460000D01*
X195918349Y-77540000D02*
X195918349Y-80363000D01*
X195918349Y-72637000D02*
X195918349Y-75460000D01*
X195878349Y-77540000D02*
X195878349Y-80377000D01*
X195878349Y-72623000D02*
X195878349Y-75460000D01*
X195838349Y-77540000D02*
X195838349Y-80389000D01*
X195838349Y-72611000D02*
X195838349Y-75460000D01*
X195798349Y-77540000D02*
X195798349Y-80402000D01*
X195798349Y-72598000D02*
X195798349Y-75460000D01*
X195758349Y-77540000D02*
X195758349Y-80414000D01*
X195758349Y-72586000D02*
X195758349Y-75460000D01*
X195718349Y-77540000D02*
X195718349Y-80425000D01*
X195718349Y-72575000D02*
X195718349Y-75460000D01*
X195678349Y-77540000D02*
X195678349Y-80436000D01*
X195678349Y-72564000D02*
X195678349Y-75460000D01*
X195638349Y-77540000D02*
X195638349Y-80447000D01*
X195638349Y-72553000D02*
X195638349Y-75460000D01*
X195598349Y-77540000D02*
X195598349Y-80457000D01*
X195598349Y-72543000D02*
X195598349Y-75460000D01*
X195558349Y-77540000D02*
X195558349Y-80467000D01*
X195558349Y-72533000D02*
X195558349Y-75460000D01*
X195518349Y-77540000D02*
X195518349Y-80476000D01*
X195518349Y-72524000D02*
X195518349Y-75460000D01*
X195478349Y-77540000D02*
X195478349Y-80485000D01*
X195478349Y-72515000D02*
X195478349Y-75460000D01*
X195438349Y-77540000D02*
X195438349Y-80494000D01*
X195438349Y-72506000D02*
X195438349Y-75460000D01*
X195398349Y-77540000D02*
X195398349Y-80502000D01*
X195398349Y-72498000D02*
X195398349Y-75460000D01*
X195358349Y-77540000D02*
X195358349Y-80510000D01*
X195358349Y-72490000D02*
X195358349Y-75460000D01*
X195318349Y-77540000D02*
X195318349Y-80517000D01*
X195318349Y-72483000D02*
X195318349Y-75460000D01*
X195277349Y-72476000D02*
X195277349Y-80524000D01*
X195237349Y-72470000D02*
X195237349Y-80530000D01*
X195197349Y-72463000D02*
X195197349Y-80537000D01*
X195157349Y-72458000D02*
X195157349Y-80542000D01*
X195117349Y-72452000D02*
X195117349Y-80548000D01*
X195077349Y-72448000D02*
X195077349Y-80552000D01*
X195037349Y-72443000D02*
X195037349Y-80557000D01*
X194997349Y-72439000D02*
X194997349Y-80561000D01*
X194957349Y-72435000D02*
X194957349Y-80565000D01*
X194917349Y-72432000D02*
X194917349Y-80568000D01*
X194877349Y-72429000D02*
X194877349Y-80571000D01*
X194837349Y-72426000D02*
X194837349Y-80574000D01*
X194797349Y-72424000D02*
X194797349Y-80576000D01*
X194757349Y-72423000D02*
X194757349Y-80577000D01*
X194717349Y-72421000D02*
X194717349Y-80579000D01*
X194677349Y-72420000D02*
X194677349Y-80580000D01*
X194637349Y-72420000D02*
X194637349Y-80580000D01*
X194597349Y-72420000D02*
X194597349Y-80580000D01*
X190587651Y-73785000D02*
X190587651Y-74585000D01*
X190187651Y-74185000D02*
X190987651Y-74185000D01*
%TO.C,SW1*%
X174700000Y-79700000D02*
X183300000Y-79700000D01*
X174700000Y-84300000D02*
X176900000Y-84300000D01*
X181000000Y-84300000D02*
X183300000Y-84300000D01*
%TO.C,J1*%
X179170000Y-66830000D02*
X179170000Y-65500000D01*
X180500000Y-66830000D02*
X179170000Y-66830000D01*
X181770000Y-66830000D02*
X186910000Y-66830000D01*
X181770000Y-66830000D02*
X181770000Y-64170000D01*
X186910000Y-66830000D02*
X186910000Y-64170000D01*
X181770000Y-64170000D02*
X186910000Y-64170000D01*
%TO.C,Q1*%
X196350000Y-68030000D02*
X196350000Y-64430000D01*
X191900000Y-66230000D02*
G75*
G02*
X196338478Y-64391522I2600000J0D01*
G01*
X196338478Y-68068478D02*
G75*
G02*
X191899999Y-66230000I-1838478J1838478D01*
G01*
%TO.C,D1*%
X186440000Y-80710000D02*
X186440000Y-84570000D01*
X186440000Y-80710000D02*
X189560000Y-80710000D01*
X186730000Y-80580000D02*
X186730000Y-80580000D01*
X186730000Y-80580000D02*
X186730000Y-80710000D01*
X186730000Y-80710000D02*
X186730000Y-80580000D01*
X186730000Y-80710000D02*
X186730000Y-80710000D01*
X189270000Y-80580000D02*
X189270000Y-80580000D01*
X189270000Y-80580000D02*
X189270000Y-80710000D01*
X189270000Y-80710000D02*
X189270000Y-80580000D01*
X189270000Y-80710000D02*
X189270000Y-80710000D01*
X189560000Y-80710000D02*
X189560000Y-84570000D01*
X189560000Y-80710000D02*
X189960000Y-80710000D01*
X189560000Y-81830000D02*
X189560000Y-80710000D01*
X189960000Y-80710000D02*
X189960000Y-81830000D01*
X189960000Y-81830000D02*
X189560000Y-81830000D01*
X189560000Y-84570000D02*
G75*
G02*
X186440000Y-84570000I-1560000J0D01*
G01*
%TO.C,R2*%
X188080000Y-71580000D02*
X188080000Y-75420000D01*
X189920000Y-71580000D02*
X189920000Y-75420000D01*
%TO.C,MOTOR*%
X188140000Y-52722500D02*
X195860000Y-52722500D01*
X188140000Y-53942500D02*
X189360000Y-53942500D01*
X188140000Y-61142500D02*
X188140000Y-52722500D01*
X189360000Y-53942500D02*
X189360000Y-58942500D01*
X189360000Y-57942500D02*
X194640000Y-57942500D01*
X189360000Y-58942500D02*
X188140000Y-58942500D01*
X189360000Y-58942500D02*
X189360000Y-61142500D01*
X189360000Y-61142500D02*
X188140000Y-61142500D01*
X190430000Y-54522500D02*
X190750000Y-54442500D01*
X190430000Y-57942500D02*
X190430000Y-54522500D01*
X190450000Y-61632500D02*
X191050000Y-61632500D01*
X190750000Y-54442500D02*
X191070000Y-54522500D01*
X190750000Y-57942500D02*
X190430000Y-57942500D01*
X190750000Y-61032500D02*
X190450000Y-61632500D01*
X191050000Y-61632500D02*
X190750000Y-61032500D01*
X191070000Y-54522500D02*
X191070000Y-57942500D01*
X191070000Y-57942500D02*
X190750000Y-57942500D01*
X191920000Y-58942500D02*
X192080000Y-58942500D01*
X192930000Y-54522500D02*
X193250000Y-54442500D01*
X192930000Y-57942500D02*
X192930000Y-54522500D01*
X193250000Y-54442500D02*
X193570000Y-54522500D01*
X193250000Y-57942500D02*
X192930000Y-57942500D01*
X193570000Y-54522500D02*
X193570000Y-57942500D01*
X193570000Y-57942500D02*
X193250000Y-57942500D01*
X194640000Y-53942500D02*
X194640000Y-58942500D01*
X194640000Y-58942500D02*
X195860000Y-58942500D01*
X194640000Y-61142500D02*
X194640000Y-58942500D01*
X195860000Y-52722500D02*
X195860000Y-61142500D01*
X195860000Y-53942500D02*
X194640000Y-53942500D01*
X195860000Y-61142500D02*
X194640000Y-61142500D01*
%TO.C,R1*%
X196420000Y-70080000D02*
X192580000Y-70080000D01*
X196420000Y-71920000D02*
X192580000Y-71920000D01*
%TD*%
D15*
%TO.C,U1*%
X200000000Y-77780000D03*
X200000000Y-75240000D03*
X200000000Y-72700000D03*
X200000000Y-70160000D03*
X200000000Y-67620000D03*
X200000000Y-65080000D03*
X200000000Y-62540000D03*
X200000000Y-60000000D03*
X177140000Y-60000000D03*
X177140000Y-62540000D03*
X177140000Y-65080000D03*
X177140000Y-67620000D03*
X177140000Y-70160000D03*
X177140000Y-72700000D03*
X177140000Y-75240000D03*
X177140000Y-77780000D03*
%TD*%
M02*
