%TF.GenerationSoftware,KiCad,Pcbnew,9.0.0*%
%TF.CreationDate,2025-05-01T09:51:15-03:00*%
%TF.ProjectId,Mini D1 Puck,4d696e69-2044-4312-9050-75636b2e6b69,rev?*%
%TF.SameCoordinates,Original*%
%TF.FileFunction,Soldermask,Bot*%
%TF.FilePolarity,Negative*%
%FSLAX46Y46*%
G04 Gerber Fmt 4.6, Leading zero omitted, Abs format (unit mm)*
G04 Created by KiCad (PCBNEW 9.0.0) date 2025-05-01 09:51:15*
%MOMM*%
%LPD*%
G01*
G04 APERTURE LIST*
G04 Aperture macros list*
%AMRoundRect*
0 Rectangle with rounded corners*
0 $1 Rounding radius*
0 $2 $3 $4 $5 $6 $7 $8 $9 X,Y pos of 4 corners*
0 Add a 4 corners polygon primitive as box body*
4,1,4,$2,$3,$4,$5,$6,$7,$8,$9,$2,$3,0*
0 Add four circle primitives for the rounded corners*
1,1,$1+$1,$2,$3*
1,1,$1+$1,$4,$5*
1,1,$1+$1,$6,$7*
1,1,$1+$1,$8,$9*
0 Add four rect primitives between the rounded corners*
20,1,$1+$1,$2,$3,$4,$5,0*
20,1,$1+$1,$4,$5,$6,$7,0*
20,1,$1+$1,$6,$7,$8,$9,0*
20,1,$1+$1,$8,$9,$2,$3,0*%
G04 Aperture macros list end*
%ADD10C,1.400000*%
%ADD11O,1.400000X1.400000*%
%ADD12C,2.250000*%
%ADD13R,2.250000X2.250000*%
%ADD14R,1.300000X1.300000*%
%ADD15C,1.300000*%
%ADD16C,1.800000*%
%ADD17O,2.200000X3.500000*%
%ADD18R,1.500000X2.500000*%
%ADD19O,1.500000X2.500000*%
%ADD20R,1.800000X1.800000*%
%ADD21RoundRect,0.250000X-0.600000X-0.750000X0.600000X-0.750000X0.600000X0.750000X-0.600000X0.750000X0*%
%ADD22O,1.700000X2.000000*%
%ADD23R,1.600000X1.600000*%
%ADD24C,1.600000*%
%ADD25R,1.700000X1.700000*%
%ADD26O,1.700000X1.700000*%
G04 APERTURE END LIST*
D10*
%TO.C,R6*%
X171500000Y-83000000D03*
D11*
X171500000Y-77920000D03*
%TD*%
D12*
%TO.C,SW2*%
X199250000Y-83000000D03*
D13*
X192750000Y-83000000D03*
%TD*%
D11*
%TO.C,R5*%
X174000000Y-72580000D03*
D10*
X174000000Y-67500000D03*
%TD*%
D14*
%TO.C,Q2*%
X176500000Y-56500000D03*
D15*
X175230000Y-55230000D03*
X176500000Y-53960000D03*
%TD*%
D14*
%TO.C,Q1*%
X194500000Y-67500000D03*
D15*
X193230000Y-66230000D03*
X194500000Y-64960000D03*
%TD*%
D16*
%TO.C,U1*%
X177140000Y-77780000D03*
X177140000Y-75240000D03*
X177140000Y-72700000D03*
X177140000Y-70160000D03*
X177140000Y-67620000D03*
X177140000Y-65080000D03*
X177140000Y-62540000D03*
X177140000Y-60000000D03*
X200000000Y-60000000D03*
X200000000Y-62540000D03*
X200000000Y-65080000D03*
X200000000Y-67620000D03*
X200000000Y-70160000D03*
X200000000Y-72700000D03*
X200000000Y-75240000D03*
X200000000Y-77780000D03*
%TD*%
D17*
%TO.C,SW1*%
X174900000Y-83000000D03*
X183100000Y-83000000D03*
D18*
X177000000Y-83000000D03*
D19*
X179000000Y-83000000D03*
X181000000Y-83000000D03*
%TD*%
D10*
%TO.C,R3*%
X174000000Y-64540000D03*
D11*
X174000000Y-59460000D03*
%TD*%
D20*
%TO.C,D1*%
X186730000Y-79500000D03*
D16*
X189270000Y-79500000D03*
%TD*%
D10*
%TO.C,R2*%
X189000000Y-70960000D03*
D11*
X189000000Y-76040000D03*
%TD*%
D21*
%TO.C,B*%
X181750000Y-59532500D03*
D22*
X184250000Y-59532500D03*
%TD*%
D23*
%TO.C,C1*%
X192847349Y-76000000D03*
D24*
X196347349Y-76000000D03*
%TD*%
D25*
%TO.C,J1*%
X180500000Y-65500000D03*
D26*
X183040000Y-65500000D03*
X185580000Y-65500000D03*
%TD*%
D21*
%TO.C,M*%
X190750000Y-59532500D03*
D22*
X193250000Y-59532500D03*
%TD*%
D10*
%TO.C,R4*%
X171500000Y-64500000D03*
D11*
X171500000Y-59420000D03*
%TD*%
D10*
%TO.C,R1*%
X197040000Y-70500000D03*
D11*
X191960000Y-70500000D03*
%TD*%
M02*
