%TF.GenerationSoftware,KiCad,Pcbnew,9.0.0*%
%TF.CreationDate,2025-05-01T09:51:15-03:00*%
%TF.ProjectId,Mini D1 Puck,4d696e69-2044-4312-9050-75636b2e6b69,rev?*%
%TF.SameCoordinates,Original*%
%TF.FileFunction,Legend,Bot*%
%TF.FilePolarity,Positive*%
%FSLAX46Y46*%
G04 Gerber Fmt 4.6, Leading zero omitted, Abs format (unit mm)*
G04 Created by KiCad (PCBNEW 9.0.0) date 2025-05-01 09:51:15*
%MOMM*%
%LPD*%
G01*
G04 APERTURE LIST*
%ADD10C,0.187500*%
G04 APERTURE END LIST*
D10*
X200590930Y-51449535D02*
X200519502Y-51378107D01*
X200519502Y-51378107D02*
X200376645Y-51306678D01*
X200376645Y-51306678D02*
X200019502Y-51306678D01*
X200019502Y-51306678D02*
X199876645Y-51378107D01*
X199876645Y-51378107D02*
X199805216Y-51449535D01*
X199805216Y-51449535D02*
X199733787Y-51592392D01*
X199733787Y-51592392D02*
X199733787Y-51735250D01*
X199733787Y-51735250D02*
X199805216Y-51949535D01*
X199805216Y-51949535D02*
X200662359Y-52806678D01*
X200662359Y-52806678D02*
X199733787Y-52806678D01*
X198805216Y-51306678D02*
X198662359Y-51306678D01*
X198662359Y-51306678D02*
X198519502Y-51378107D01*
X198519502Y-51378107D02*
X198448074Y-51449535D01*
X198448074Y-51449535D02*
X198376645Y-51592392D01*
X198376645Y-51592392D02*
X198305216Y-51878107D01*
X198305216Y-51878107D02*
X198305216Y-52235250D01*
X198305216Y-52235250D02*
X198376645Y-52520964D01*
X198376645Y-52520964D02*
X198448074Y-52663821D01*
X198448074Y-52663821D02*
X198519502Y-52735250D01*
X198519502Y-52735250D02*
X198662359Y-52806678D01*
X198662359Y-52806678D02*
X198805216Y-52806678D01*
X198805216Y-52806678D02*
X198948074Y-52735250D01*
X198948074Y-52735250D02*
X199019502Y-52663821D01*
X199019502Y-52663821D02*
X199090931Y-52520964D01*
X199090931Y-52520964D02*
X199162359Y-52235250D01*
X199162359Y-52235250D02*
X199162359Y-51878107D01*
X199162359Y-51878107D02*
X199090931Y-51592392D01*
X199090931Y-51592392D02*
X199019502Y-51449535D01*
X199019502Y-51449535D02*
X198948074Y-51378107D01*
X198948074Y-51378107D02*
X198805216Y-51306678D01*
X197733788Y-51449535D02*
X197662360Y-51378107D01*
X197662360Y-51378107D02*
X197519503Y-51306678D01*
X197519503Y-51306678D02*
X197162360Y-51306678D01*
X197162360Y-51306678D02*
X197019503Y-51378107D01*
X197019503Y-51378107D02*
X196948074Y-51449535D01*
X196948074Y-51449535D02*
X196876645Y-51592392D01*
X196876645Y-51592392D02*
X196876645Y-51735250D01*
X196876645Y-51735250D02*
X196948074Y-51949535D01*
X196948074Y-51949535D02*
X197805217Y-52806678D01*
X197805217Y-52806678D02*
X196876645Y-52806678D01*
X195519503Y-51306678D02*
X196233789Y-51306678D01*
X196233789Y-51306678D02*
X196305217Y-52020964D01*
X196305217Y-52020964D02*
X196233789Y-51949535D01*
X196233789Y-51949535D02*
X196090932Y-51878107D01*
X196090932Y-51878107D02*
X195733789Y-51878107D01*
X195733789Y-51878107D02*
X195590932Y-51949535D01*
X195590932Y-51949535D02*
X195519503Y-52020964D01*
X195519503Y-52020964D02*
X195448074Y-52163821D01*
X195448074Y-52163821D02*
X195448074Y-52520964D01*
X195448074Y-52520964D02*
X195519503Y-52663821D01*
X195519503Y-52663821D02*
X195590932Y-52735250D01*
X195590932Y-52735250D02*
X195733789Y-52806678D01*
X195733789Y-52806678D02*
X196090932Y-52806678D01*
X196090932Y-52806678D02*
X196233789Y-52735250D01*
X196233789Y-52735250D02*
X196305217Y-52663821D01*
X194519503Y-51306678D02*
X194376646Y-51306678D01*
X194376646Y-51306678D02*
X194233789Y-51378107D01*
X194233789Y-51378107D02*
X194162361Y-51449535D01*
X194162361Y-51449535D02*
X194090932Y-51592392D01*
X194090932Y-51592392D02*
X194019503Y-51878107D01*
X194019503Y-51878107D02*
X194019503Y-52235250D01*
X194019503Y-52235250D02*
X194090932Y-52520964D01*
X194090932Y-52520964D02*
X194162361Y-52663821D01*
X194162361Y-52663821D02*
X194233789Y-52735250D01*
X194233789Y-52735250D02*
X194376646Y-52806678D01*
X194376646Y-52806678D02*
X194519503Y-52806678D01*
X194519503Y-52806678D02*
X194662361Y-52735250D01*
X194662361Y-52735250D02*
X194733789Y-52663821D01*
X194733789Y-52663821D02*
X194805218Y-52520964D01*
X194805218Y-52520964D02*
X194876646Y-52235250D01*
X194876646Y-52235250D02*
X194876646Y-51878107D01*
X194876646Y-51878107D02*
X194805218Y-51592392D01*
X194805218Y-51592392D02*
X194733789Y-51449535D01*
X194733789Y-51449535D02*
X194662361Y-51378107D01*
X194662361Y-51378107D02*
X194519503Y-51306678D01*
X192733790Y-51806678D02*
X192733790Y-52806678D01*
X193090932Y-51235250D02*
X193448075Y-52306678D01*
X193448075Y-52306678D02*
X192519504Y-52306678D01*
X192090933Y-51306678D02*
X191162361Y-51306678D01*
X191162361Y-51306678D02*
X191662361Y-51878107D01*
X191662361Y-51878107D02*
X191448076Y-51878107D01*
X191448076Y-51878107D02*
X191305219Y-51949535D01*
X191305219Y-51949535D02*
X191233790Y-52020964D01*
X191233790Y-52020964D02*
X191162361Y-52163821D01*
X191162361Y-52163821D02*
X191162361Y-52520964D01*
X191162361Y-52520964D02*
X191233790Y-52663821D01*
X191233790Y-52663821D02*
X191305219Y-52735250D01*
X191305219Y-52735250D02*
X191448076Y-52806678D01*
X191448076Y-52806678D02*
X191876647Y-52806678D01*
X191876647Y-52806678D02*
X192019504Y-52735250D01*
X192019504Y-52735250D02*
X192090933Y-52663821D01*
X190233790Y-51306678D02*
X190090933Y-51306678D01*
X190090933Y-51306678D02*
X189948076Y-51378107D01*
X189948076Y-51378107D02*
X189876648Y-51449535D01*
X189876648Y-51449535D02*
X189805219Y-51592392D01*
X189805219Y-51592392D02*
X189733790Y-51878107D01*
X189733790Y-51878107D02*
X189733790Y-52235250D01*
X189733790Y-52235250D02*
X189805219Y-52520964D01*
X189805219Y-52520964D02*
X189876648Y-52663821D01*
X189876648Y-52663821D02*
X189948076Y-52735250D01*
X189948076Y-52735250D02*
X190090933Y-52806678D01*
X190090933Y-52806678D02*
X190233790Y-52806678D01*
X190233790Y-52806678D02*
X190376648Y-52735250D01*
X190376648Y-52735250D02*
X190448076Y-52663821D01*
X190448076Y-52663821D02*
X190519505Y-52520964D01*
X190519505Y-52520964D02*
X190590933Y-52235250D01*
X190590933Y-52235250D02*
X190590933Y-51878107D01*
X190590933Y-51878107D02*
X190519505Y-51592392D01*
X190519505Y-51592392D02*
X190448076Y-51449535D01*
X190448076Y-51449535D02*
X190376648Y-51378107D01*
X190376648Y-51378107D02*
X190233790Y-51306678D01*
M02*
