%TF.GenerationSoftware,KiCad,Pcbnew,9.0.0*%
%TF.CreationDate,2025-05-01T12:58:47-03:00*%
%TF.ProjectId,Mini D1 Puck,4d696e69-2044-4312-9050-75636b2e6b69,rev?*%
%TF.SameCoordinates,Original*%
%TF.FileFunction,Legend,Top*%
%TF.FilePolarity,Positive*%
%FSLAX46Y46*%
G04 Gerber Fmt 4.6, Leading zero omitted, Abs format (unit mm)*
G04 Created by KiCad (PCBNEW 9.0.0) date 2025-05-01 12:58:47*
%MOMM*%
%LPD*%
G01*
G04 APERTURE LIST*
%ADD10C,0.200000*%
%ADD11C,0.125000*%
%ADD12C,0.150000*%
%ADD13C,0.120000*%
%ADD14C,1.800000*%
G04 APERTURE END LIST*
D10*
X178500000Y-63500000D02*
X187500000Y-63500000D01*
X187500000Y-76500000D01*
X178500000Y-76500000D01*
X178500000Y-63500000D01*
D11*
X170128880Y-67320331D02*
X171128880Y-67320331D01*
X171128880Y-67320331D02*
X170128880Y-67891759D01*
X170128880Y-67891759D02*
X171128880Y-67891759D01*
X170128880Y-68367950D02*
X171128880Y-68367950D01*
X170652690Y-68367950D02*
X170652690Y-68939378D01*
X170128880Y-68939378D02*
X171128880Y-68939378D01*
X170128880Y-69415569D02*
X171128880Y-69415569D01*
X171128880Y-69415569D02*
X171128880Y-69653664D01*
X171128880Y-69653664D02*
X171081261Y-69796521D01*
X171081261Y-69796521D02*
X170986023Y-69891759D01*
X170986023Y-69891759D02*
X170890785Y-69939378D01*
X170890785Y-69939378D02*
X170700309Y-69986997D01*
X170700309Y-69986997D02*
X170557452Y-69986997D01*
X170557452Y-69986997D02*
X170366976Y-69939378D01*
X170366976Y-69939378D02*
X170271738Y-69891759D01*
X170271738Y-69891759D02*
X170176500Y-69796521D01*
X170176500Y-69796521D02*
X170128880Y-69653664D01*
X170128880Y-69653664D02*
X170128880Y-69415569D01*
X170509833Y-70415569D02*
X170509833Y-71177474D01*
X170128880Y-71653664D02*
X171128880Y-71653664D01*
X170652690Y-71653664D02*
X170652690Y-72225092D01*
X170128880Y-72225092D02*
X171128880Y-72225092D01*
X170128880Y-72701283D02*
X171128880Y-72701283D01*
X171128880Y-72701283D02*
X171128880Y-73082235D01*
X171128880Y-73082235D02*
X171081261Y-73177473D01*
X171081261Y-73177473D02*
X171033642Y-73225092D01*
X171033642Y-73225092D02*
X170938404Y-73272711D01*
X170938404Y-73272711D02*
X170795547Y-73272711D01*
X170795547Y-73272711D02*
X170700309Y-73225092D01*
X170700309Y-73225092D02*
X170652690Y-73177473D01*
X170652690Y-73177473D02*
X170605071Y-73082235D01*
X170605071Y-73082235D02*
X170605071Y-72701283D01*
X170128880Y-74463188D02*
X171128880Y-74463188D01*
X171128880Y-74463188D02*
X171128880Y-74844140D01*
X171128880Y-74844140D02*
X171081261Y-74939378D01*
X171081261Y-74939378D02*
X171033642Y-74986997D01*
X171033642Y-74986997D02*
X170938404Y-75034616D01*
X170938404Y-75034616D02*
X170795547Y-75034616D01*
X170795547Y-75034616D02*
X170700309Y-74986997D01*
X170700309Y-74986997D02*
X170652690Y-74939378D01*
X170652690Y-74939378D02*
X170605071Y-74844140D01*
X170605071Y-74844140D02*
X170605071Y-74463188D01*
X170128880Y-75986997D02*
X170128880Y-75415569D01*
X170128880Y-75701283D02*
X171128880Y-75701283D01*
X171128880Y-75701283D02*
X170986023Y-75606045D01*
X170986023Y-75606045D02*
X170890785Y-75510807D01*
X170890785Y-75510807D02*
X170843166Y-75415569D01*
D12*
X184571428Y-51563509D02*
X184714285Y-51611128D01*
X184714285Y-51611128D02*
X184761904Y-51658747D01*
X184761904Y-51658747D02*
X184809523Y-51753985D01*
X184809523Y-51753985D02*
X184809523Y-51896842D01*
X184809523Y-51896842D02*
X184761904Y-51992080D01*
X184761904Y-51992080D02*
X184714285Y-52039700D01*
X184714285Y-52039700D02*
X184619047Y-52087319D01*
X184619047Y-52087319D02*
X184238095Y-52087319D01*
X184238095Y-52087319D02*
X184238095Y-51087319D01*
X184238095Y-51087319D02*
X184571428Y-51087319D01*
X184571428Y-51087319D02*
X184666666Y-51134938D01*
X184666666Y-51134938D02*
X184714285Y-51182557D01*
X184714285Y-51182557D02*
X184761904Y-51277795D01*
X184761904Y-51277795D02*
X184761904Y-51373033D01*
X184761904Y-51373033D02*
X184714285Y-51468271D01*
X184714285Y-51468271D02*
X184666666Y-51515890D01*
X184666666Y-51515890D02*
X184571428Y-51563509D01*
X184571428Y-51563509D02*
X184238095Y-51563509D01*
X194166667Y-52087319D02*
X194166667Y-51087319D01*
X194166667Y-51087319D02*
X194500000Y-51801604D01*
X194500000Y-51801604D02*
X194833333Y-51087319D01*
X194833333Y-51087319D02*
X194833333Y-52087319D01*
D13*
%TO.C,R6*%
X170580000Y-82380000D02*
X170580000Y-78540000D01*
X172420000Y-82380000D02*
X172420000Y-78540000D01*
%TO.C,Q2*%
X178350000Y-57030000D02*
X178350000Y-53430000D01*
X173900000Y-55230000D02*
G75*
G02*
X178338478Y-53391522I2600000J0D01*
G01*
X178338478Y-57068478D02*
G75*
G02*
X173899999Y-55230000I-1838478J1838478D01*
G01*
%TO.C,Q1*%
X196350000Y-68030000D02*
X196350000Y-64430000D01*
X191900000Y-66230000D02*
G75*
G02*
X196338478Y-64391522I2600000J0D01*
G01*
X196338478Y-68068478D02*
G75*
G02*
X191899999Y-66230000I-1838478J1838478D01*
G01*
%TO.C,R5*%
X173080000Y-68120000D02*
X173080000Y-71960000D01*
X174920000Y-68120000D02*
X174920000Y-71960000D01*
%TO.C,SW1*%
X174700000Y-80700000D02*
X183300000Y-80700000D01*
X174700000Y-85300000D02*
X176900000Y-85300000D01*
X181000000Y-85300000D02*
X183300000Y-85300000D01*
%TO.C,R3*%
X173080000Y-63920000D02*
X173080000Y-60080000D01*
X174920000Y-63920000D02*
X174920000Y-60080000D01*
%TO.C,B*%
X179390000Y-52722500D02*
X189610000Y-52722500D01*
X179390000Y-53942500D02*
X180610000Y-53942500D01*
X179390000Y-61142500D02*
X179390000Y-52722500D01*
X180610000Y-53942500D02*
X180610000Y-58942500D01*
X180610000Y-57942500D02*
X188390000Y-57942500D01*
X180610000Y-58942500D02*
X179390000Y-58942500D01*
X180610000Y-58942500D02*
X180610000Y-61142500D01*
X180610000Y-61142500D02*
X179390000Y-61142500D01*
X181680000Y-54522500D02*
X182000000Y-54442500D01*
X181680000Y-57942500D02*
X181680000Y-54522500D01*
X181700000Y-61632500D02*
X182300000Y-61632500D01*
X182000000Y-54442500D02*
X182320000Y-54522500D01*
X182000000Y-57942500D02*
X181680000Y-57942500D01*
X182000000Y-61032500D02*
X181700000Y-61632500D01*
X182300000Y-61632500D02*
X182000000Y-61032500D01*
X182320000Y-54522500D02*
X182320000Y-57942500D01*
X182320000Y-57942500D02*
X182000000Y-57942500D01*
X183170000Y-58942500D02*
X183330000Y-58942500D01*
X184180000Y-54522500D02*
X184500000Y-54442500D01*
X184180000Y-57942500D02*
X184180000Y-54522500D01*
X184500000Y-54442500D02*
X184820000Y-54522500D01*
X184500000Y-57942500D02*
X184180000Y-57942500D01*
X184820000Y-54522500D02*
X184820000Y-57942500D01*
X184820000Y-57942500D02*
X184500000Y-57942500D01*
X185670000Y-58942500D02*
X185830000Y-58942500D01*
X186680000Y-54522500D02*
X187000000Y-54442500D01*
X186680000Y-57942500D02*
X186680000Y-54522500D01*
X187000000Y-54442500D02*
X187320000Y-54522500D01*
X187000000Y-57942500D02*
X186680000Y-57942500D01*
X187320000Y-54522500D02*
X187320000Y-57942500D01*
X187320000Y-57942500D02*
X187000000Y-57942500D01*
X188390000Y-53942500D02*
X188390000Y-58942500D01*
X188390000Y-58942500D02*
X189610000Y-58942500D01*
X188390000Y-61142500D02*
X188390000Y-58942500D01*
X189610000Y-52722500D02*
X189610000Y-61142500D01*
X189610000Y-53942500D02*
X188390000Y-53942500D01*
X189610000Y-61142500D02*
X188390000Y-61142500D01*
%TO.C,D1*%
X186440000Y-80710000D02*
X186440000Y-84570000D01*
X186440000Y-80710000D02*
X189560000Y-80710000D01*
X186730000Y-80580000D02*
X186730000Y-80580000D01*
X186730000Y-80580000D02*
X186730000Y-80710000D01*
X186730000Y-80710000D02*
X186730000Y-80580000D01*
X186730000Y-80710000D02*
X186730000Y-80710000D01*
X189270000Y-80580000D02*
X189270000Y-80580000D01*
X189270000Y-80580000D02*
X189270000Y-80710000D01*
X189270000Y-80710000D02*
X189270000Y-80580000D01*
X189270000Y-80710000D02*
X189270000Y-80710000D01*
X189560000Y-80710000D02*
X189560000Y-84570000D01*
X189560000Y-80710000D02*
X189960000Y-80710000D01*
X189560000Y-81830000D02*
X189560000Y-80710000D01*
X189960000Y-80710000D02*
X189960000Y-81830000D01*
X189960000Y-81830000D02*
X189560000Y-81830000D01*
X189560000Y-84570000D02*
G75*
G02*
X186440000Y-84570000I-1560000J0D01*
G01*
%TO.C,R2*%
X188080000Y-71580000D02*
X188080000Y-75420000D01*
X189920000Y-71580000D02*
X189920000Y-75420000D01*
%TO.C,C1*%
X190187651Y-73685000D02*
X190987651Y-73685000D01*
X190587651Y-73285000D02*
X190587651Y-74085000D01*
X194597349Y-71920000D02*
X194597349Y-80080000D01*
X194637349Y-71920000D02*
X194637349Y-80080000D01*
X194677349Y-71920000D02*
X194677349Y-80080000D01*
X194717349Y-71921000D02*
X194717349Y-80079000D01*
X194757349Y-71923000D02*
X194757349Y-80077000D01*
X194797349Y-71924000D02*
X194797349Y-80076000D01*
X194837349Y-71926000D02*
X194837349Y-80074000D01*
X194877349Y-71929000D02*
X194877349Y-80071000D01*
X194917349Y-71932000D02*
X194917349Y-80068000D01*
X194957349Y-71935000D02*
X194957349Y-80065000D01*
X194997349Y-71939000D02*
X194997349Y-80061000D01*
X195037349Y-71943000D02*
X195037349Y-80057000D01*
X195077349Y-71948000D02*
X195077349Y-80052000D01*
X195117349Y-71952000D02*
X195117349Y-80048000D01*
X195157349Y-71958000D02*
X195157349Y-80042000D01*
X195197349Y-71963000D02*
X195197349Y-80037000D01*
X195237349Y-71970000D02*
X195237349Y-80030000D01*
X195277349Y-71976000D02*
X195277349Y-80024000D01*
X195318349Y-71983000D02*
X195318349Y-74960000D01*
X195318349Y-77040000D02*
X195318349Y-80017000D01*
X195358349Y-71990000D02*
X195358349Y-74960000D01*
X195358349Y-77040000D02*
X195358349Y-80010000D01*
X195398349Y-71998000D02*
X195398349Y-74960000D01*
X195398349Y-77040000D02*
X195398349Y-80002000D01*
X195438349Y-72006000D02*
X195438349Y-74960000D01*
X195438349Y-77040000D02*
X195438349Y-79994000D01*
X195478349Y-72015000D02*
X195478349Y-74960000D01*
X195478349Y-77040000D02*
X195478349Y-79985000D01*
X195518349Y-72024000D02*
X195518349Y-74960000D01*
X195518349Y-77040000D02*
X195518349Y-79976000D01*
X195558349Y-72033000D02*
X195558349Y-74960000D01*
X195558349Y-77040000D02*
X195558349Y-79967000D01*
X195598349Y-72043000D02*
X195598349Y-74960000D01*
X195598349Y-77040000D02*
X195598349Y-79957000D01*
X195638349Y-72053000D02*
X195638349Y-74960000D01*
X195638349Y-77040000D02*
X195638349Y-79947000D01*
X195678349Y-72064000D02*
X195678349Y-74960000D01*
X195678349Y-77040000D02*
X195678349Y-79936000D01*
X195718349Y-72075000D02*
X195718349Y-74960000D01*
X195718349Y-77040000D02*
X195718349Y-79925000D01*
X195758349Y-72086000D02*
X195758349Y-74960000D01*
X195758349Y-77040000D02*
X195758349Y-79914000D01*
X195798349Y-72098000D02*
X195798349Y-74960000D01*
X195798349Y-77040000D02*
X195798349Y-79902000D01*
X195838349Y-72111000D02*
X195838349Y-74960000D01*
X195838349Y-77040000D02*
X195838349Y-79889000D01*
X195878349Y-72123000D02*
X195878349Y-74960000D01*
X195878349Y-77040000D02*
X195878349Y-79877000D01*
X195918349Y-72137000D02*
X195918349Y-74960000D01*
X195918349Y-77040000D02*
X195918349Y-79863000D01*
X195958349Y-72150000D02*
X195958349Y-74960000D01*
X195958349Y-77040000D02*
X195958349Y-79850000D01*
X195998349Y-72165000D02*
X195998349Y-74960000D01*
X195998349Y-77040000D02*
X195998349Y-79835000D01*
X196038349Y-72179000D02*
X196038349Y-74960000D01*
X196038349Y-77040000D02*
X196038349Y-79821000D01*
X196078349Y-72195000D02*
X196078349Y-74960000D01*
X196078349Y-77040000D02*
X196078349Y-79805000D01*
X196118349Y-72210000D02*
X196118349Y-74960000D01*
X196118349Y-77040000D02*
X196118349Y-79790000D01*
X196158349Y-72226000D02*
X196158349Y-74960000D01*
X196158349Y-77040000D02*
X196158349Y-79774000D01*
X196198349Y-72243000D02*
X196198349Y-74960000D01*
X196198349Y-77040000D02*
X196198349Y-79757000D01*
X196238349Y-72260000D02*
X196238349Y-74960000D01*
X196238349Y-77040000D02*
X196238349Y-79740000D01*
X196278349Y-72278000D02*
X196278349Y-74960000D01*
X196278349Y-77040000D02*
X196278349Y-79722000D01*
X196318349Y-72296000D02*
X196318349Y-74960000D01*
X196318349Y-77040000D02*
X196318349Y-79704000D01*
X196358349Y-72314000D02*
X196358349Y-74960000D01*
X196358349Y-77040000D02*
X196358349Y-79686000D01*
X196398349Y-72334000D02*
X196398349Y-74960000D01*
X196398349Y-77040000D02*
X196398349Y-79666000D01*
X196438349Y-72353000D02*
X196438349Y-74960000D01*
X196438349Y-77040000D02*
X196438349Y-79647000D01*
X196478349Y-72373000D02*
X196478349Y-74960000D01*
X196478349Y-77040000D02*
X196478349Y-79627000D01*
X196518349Y-72394000D02*
X196518349Y-74960000D01*
X196518349Y-77040000D02*
X196518349Y-79606000D01*
X196558349Y-72416000D02*
X196558349Y-74960000D01*
X196558349Y-77040000D02*
X196558349Y-79584000D01*
X196598349Y-72438000D02*
X196598349Y-74960000D01*
X196598349Y-77040000D02*
X196598349Y-79562000D01*
X196638349Y-72460000D02*
X196638349Y-74960000D01*
X196638349Y-77040000D02*
X196638349Y-79540000D01*
X196678349Y-72483000D02*
X196678349Y-74960000D01*
X196678349Y-77040000D02*
X196678349Y-79517000D01*
X196718349Y-72507000D02*
X196718349Y-74960000D01*
X196718349Y-77040000D02*
X196718349Y-79493000D01*
X196758349Y-72531000D02*
X196758349Y-74960000D01*
X196758349Y-77040000D02*
X196758349Y-79469000D01*
X196798349Y-72556000D02*
X196798349Y-74960000D01*
X196798349Y-77040000D02*
X196798349Y-79444000D01*
X196838349Y-72582000D02*
X196838349Y-74960000D01*
X196838349Y-77040000D02*
X196838349Y-79418000D01*
X196878349Y-72608000D02*
X196878349Y-74960000D01*
X196878349Y-77040000D02*
X196878349Y-79392000D01*
X196918349Y-72635000D02*
X196918349Y-74960000D01*
X196918349Y-77040000D02*
X196918349Y-79365000D01*
X196958349Y-72662000D02*
X196958349Y-74960000D01*
X196958349Y-77040000D02*
X196958349Y-79338000D01*
X196998349Y-72691000D02*
X196998349Y-74960000D01*
X196998349Y-77040000D02*
X196998349Y-79309000D01*
X197038349Y-72720000D02*
X197038349Y-74960000D01*
X197038349Y-77040000D02*
X197038349Y-79280000D01*
X197078349Y-72750000D02*
X197078349Y-74960000D01*
X197078349Y-77040000D02*
X197078349Y-79250000D01*
X197118349Y-72780000D02*
X197118349Y-74960000D01*
X197118349Y-77040000D02*
X197118349Y-79220000D01*
X197158349Y-72811000D02*
X197158349Y-74960000D01*
X197158349Y-77040000D02*
X197158349Y-79189000D01*
X197198349Y-72844000D02*
X197198349Y-74960000D01*
X197198349Y-77040000D02*
X197198349Y-79156000D01*
X197238349Y-72876000D02*
X197238349Y-74960000D01*
X197238349Y-77040000D02*
X197238349Y-79124000D01*
X197278349Y-72910000D02*
X197278349Y-74960000D01*
X197278349Y-77040000D02*
X197278349Y-79090000D01*
X197318349Y-72945000D02*
X197318349Y-74960000D01*
X197318349Y-77040000D02*
X197318349Y-79055000D01*
X197358349Y-72981000D02*
X197358349Y-74960000D01*
X197358349Y-77040000D02*
X197358349Y-79019000D01*
X197398349Y-73017000D02*
X197398349Y-78983000D01*
X197438349Y-73055000D02*
X197438349Y-78945000D01*
X197478349Y-73093000D02*
X197478349Y-78907000D01*
X197518349Y-73133000D02*
X197518349Y-78867000D01*
X197558349Y-73174000D02*
X197558349Y-78826000D01*
X197598349Y-73216000D02*
X197598349Y-78784000D01*
X197638349Y-73259000D02*
X197638349Y-78741000D01*
X197678349Y-73303000D02*
X197678349Y-78697000D01*
X197718349Y-73349000D02*
X197718349Y-78651000D01*
X197758349Y-73396000D02*
X197758349Y-78604000D01*
X197798349Y-73444000D02*
X197798349Y-78556000D01*
X197838349Y-73495000D02*
X197838349Y-78505000D01*
X197878349Y-73546000D02*
X197878349Y-78454000D01*
X197918349Y-73600000D02*
X197918349Y-78400000D01*
X197958349Y-73655000D02*
X197958349Y-78345000D01*
X197998349Y-73713000D02*
X197998349Y-78287000D01*
X198038349Y-73772000D02*
X198038349Y-78228000D01*
X198078349Y-73834000D02*
X198078349Y-78166000D01*
X198118349Y-73898000D02*
X198118349Y-78102000D01*
X198158349Y-73966000D02*
X198158349Y-78034000D01*
X198198349Y-74036000D02*
X198198349Y-77964000D01*
X198238349Y-74110000D02*
X198238349Y-77890000D01*
X198278349Y-74187000D02*
X198278349Y-77813000D01*
X198318349Y-74269000D02*
X198318349Y-77731000D01*
X198358349Y-74355000D02*
X198358349Y-77645000D01*
X198398349Y-74448000D02*
X198398349Y-77552000D01*
X198438349Y-74547000D02*
X198438349Y-77453000D01*
X198478349Y-74654000D02*
X198478349Y-77346000D01*
X198518349Y-74771000D02*
X198518349Y-77229000D01*
X198558349Y-74902000D02*
X198558349Y-77098000D01*
X198598349Y-75052000D02*
X198598349Y-76948000D01*
X198638349Y-75232000D02*
X198638349Y-76768000D01*
X198678349Y-75467000D02*
X198678349Y-76533000D01*
X198717349Y-76000000D02*
G75*
G02*
X190477349Y-76000000I-4120000J0D01*
G01*
X190477349Y-76000000D02*
G75*
G02*
X198717349Y-76000000I4120000J0D01*
G01*
%TO.C,J1*%
X179170000Y-66830000D02*
X179170000Y-65500000D01*
X180500000Y-66830000D02*
X179170000Y-66830000D01*
X181770000Y-64170000D02*
X186910000Y-64170000D01*
X181770000Y-66830000D02*
X181770000Y-64170000D01*
X181770000Y-66830000D02*
X186910000Y-66830000D01*
X186910000Y-66830000D02*
X186910000Y-64170000D01*
%TO.C,M*%
X190640000Y-52722500D02*
X198360000Y-52722500D01*
X190640000Y-53942500D02*
X191860000Y-53942500D01*
X190640000Y-61142500D02*
X190640000Y-52722500D01*
X191860000Y-53942500D02*
X191860000Y-58942500D01*
X191860000Y-57942500D02*
X197140000Y-57942500D01*
X191860000Y-58942500D02*
X190640000Y-58942500D01*
X191860000Y-58942500D02*
X191860000Y-61142500D01*
X191860000Y-61142500D02*
X190640000Y-61142500D01*
X192930000Y-54522500D02*
X193250000Y-54442500D01*
X192930000Y-57942500D02*
X192930000Y-54522500D01*
X192950000Y-61632500D02*
X193550000Y-61632500D01*
X193250000Y-54442500D02*
X193570000Y-54522500D01*
X193250000Y-57942500D02*
X192930000Y-57942500D01*
X193250000Y-61032500D02*
X192950000Y-61632500D01*
X193550000Y-61632500D02*
X193250000Y-61032500D01*
X193570000Y-54522500D02*
X193570000Y-57942500D01*
X193570000Y-57942500D02*
X193250000Y-57942500D01*
X194420000Y-58942500D02*
X194580000Y-58942500D01*
X195430000Y-54522500D02*
X195750000Y-54442500D01*
X195430000Y-57942500D02*
X195430000Y-54522500D01*
X195750000Y-54442500D02*
X196070000Y-54522500D01*
X195750000Y-57942500D02*
X195430000Y-57942500D01*
X196070000Y-54522500D02*
X196070000Y-57942500D01*
X196070000Y-57942500D02*
X195750000Y-57942500D01*
X197140000Y-53942500D02*
X197140000Y-58942500D01*
X197140000Y-58942500D02*
X198360000Y-58942500D01*
X197140000Y-61142500D02*
X197140000Y-58942500D01*
X198360000Y-52722500D02*
X198360000Y-61142500D01*
X198360000Y-53942500D02*
X197140000Y-53942500D01*
X198360000Y-61142500D02*
X197140000Y-61142500D01*
%TO.C,SW2*%
X192900000Y-81150000D02*
X192900000Y-81610000D01*
X192900000Y-81610000D02*
X191900000Y-81610000D01*
X192900000Y-84390000D02*
X192900000Y-84850000D01*
X192900000Y-84850000D02*
X199100000Y-84850000D01*
X199100000Y-81150000D02*
X192900000Y-81150000D01*
X199100000Y-81150000D02*
X199100000Y-81610000D01*
X199100000Y-84390000D02*
X199100000Y-84850000D01*
X194500000Y-82450000D02*
X197350000Y-82450000D01*
X197350000Y-83500000D01*
X194500000Y-83500000D01*
X194500000Y-82450000D01*
%TO.C,R4*%
X170580000Y-63880000D02*
X170580000Y-60040000D01*
X172420000Y-63880000D02*
X172420000Y-60040000D01*
%TO.C,R1*%
X196420000Y-69580000D02*
X192580000Y-69580000D01*
X196420000Y-71420000D02*
X192580000Y-71420000D01*
%TD*%
D14*
%TO.C,U1*%
X177140000Y-77780000D03*
X177140000Y-75240000D03*
X177140000Y-72700000D03*
X177140000Y-70160000D03*
X177140000Y-67620000D03*
X177140000Y-65080000D03*
X177140000Y-62540000D03*
X177140000Y-60000000D03*
X200000000Y-60000000D03*
X200000000Y-62540000D03*
X200000000Y-65080000D03*
X200000000Y-67620000D03*
X200000000Y-70160000D03*
X200000000Y-72700000D03*
X200000000Y-75240000D03*
X200000000Y-77780000D03*
%TD*%
M02*
